HIERARCHY
ROOT Hips
{
	OFFSET 0.000000 35.082581 0.000000
	CHANNELS 6 Xposition Yposition Zposition Xrotation Yrotation Zrotation 
	JOINT Spine
	{
		OFFSET 0.000000 6.876099 0.125700
		CHANNELS 3 Xrotation Yrotation Zrotation
		JOINT Spine1
		{
			OFFSET 0.000000 5.730043 0.104720
			CHANNELS 3 Xrotation Yrotation Zrotation
			JOINT Spine1_split
			{
				OFFSET 0.000000 5.730043 0.104720
				CHANNELS 3 Xrotation Yrotation Zrotation
				JOINT Spine2
				{
					OFFSET 0.000000 5.730043 0.104720
					CHANNELS 3 Xrotation Yrotation Zrotation
					JOINT Neck
					{
						OFFSET 0.000000 10.314075 0.188496
						CHANNELS 3 Xrotation Yrotation Zrotation
						JOINT Head
						{
							OFFSET 0.000000 7.643700 -2.377400
							CHANNELS 3 Xrotation Yrotation Zrotation
							JOINT HeadTop_End
							{
								OFFSET 0.000000 43.788605 -13.619600
								CHANNELS 3 Xrotation Yrotation Zrotation
								End Site
								{
									OFFSET 0.000000 0.000000 0.000000
								}
							}
						}
					}
					JOINT LeftShoulder
					{
						OFFSET 2.196100 4.412489 0.087492
						CHANNELS 3 Xrotation Yrotation Zrotation
						JOINT LeftShoulder_split
						{
							OFFSET 2.196100 4.412489 0.087492
							CHANNELS 3 Xrotation Yrotation Zrotation
							JOINT LeftArm
							{
								OFFSET 8.771219 -2.981674 -0.026999
								CHANNELS 3 Xrotation Yrotation Zrotation
								JOINT LeftForeArm
								{
									OFFSET 8.512804 0.000000 -0.000000
									CHANNELS 3 Xrotation Yrotation Zrotation
									JOINT LeftHand
									{
										OFFSET 18.484802 0.000000 -0.000000
										CHANNELS 3 Xrotation Yrotation Zrotation
										JOINT LeftHandThumb1
										{
											OFFSET 2.499420 -1.158070 2.653252
											CHANNELS 3 Xrotation Yrotation Zrotation
											JOINT LeftHandThumb2
											{
												OFFSET 2.370079 -1.368366 1.368366
												CHANNELS 3 Xrotation Yrotation Zrotation
												JOINT LeftHandThumb3
												{
													OFFSET 2.676727 -1.545410 1.545409
													CHANNELS 3 Xrotation Yrotation Zrotation
													JOINT LeftHandThumb4
													{
														OFFSET 1.692226 -0.977005 0.977007
														CHANNELS 3 Xrotation Yrotation Zrotation
														End Site
														{
															OFFSET 0.000000 0.000000 0.000000
														}
													}
												}
											}
										}
										JOINT LeftHandIndex1
										{
											OFFSET 7.924831 -0.457527 2.345128
											CHANNELS 3 Xrotation Yrotation Zrotation
											JOINT LeftHandIndex2
											{
												OFFSET 3.643303 0.000000 0.000000
												CHANNELS 3 Xrotation Yrotation Zrotation
												JOINT LeftHandIndex3
												{
													OFFSET 3.810799 0.000000 0.000000
													CHANNELS 3 Xrotation Yrotation Zrotation
													JOINT LeftHandIndex4
													{
														OFFSET 2.403702 0.000000 0.000000
														CHANNELS 3 Xrotation Yrotation Zrotation
														End Site
														{
															OFFSET 0.000000 0.000000 0.000000
														}
													}
												}
											}
										}
										JOINT LeftHandMiddle1
										{
											OFFSET 8.563995 0.000000 -0.000000
											CHANNELS 3 Xrotation Yrotation Zrotation
											JOINT LeftHandMiddle2
											{
												OFFSET 3.861618 0.000000 0.000000
												CHANNELS 3 Xrotation Yrotation Zrotation
												JOINT LeftHandMiddle3
												{
													OFFSET 3.701603 0.000000 0.000000
													CHANNELS 3 Xrotation Yrotation Zrotation
													JOINT LeftHandMiddle4
													{
														OFFSET 2.322544 0.000000 0.000000
														CHANNELS 3 Xrotation Yrotation Zrotation
														End Site
														{
															OFFSET 0.000000 0.000000 0.000000
														}
													}
												}
											}
										}
										JOINT LeftHandRing1
										{
											OFFSET 8.426460 -0.424637 -3.286992
											CHANNELS 3 Xrotation Yrotation Zrotation
											JOINT LeftHandRing2
											{
												OFFSET 3.126408 0.000000 0.000000
												CHANNELS 3 Xrotation Yrotation Zrotation
												JOINT LeftHandRing3
												{
													OFFSET 3.085026 0.000000 0.000000
													CHANNELS 3 Xrotation Yrotation Zrotation
													JOINT LeftHandRing4
													{
														OFFSET 1.644005 0.000000 0.000000
														CHANNELS 3 Xrotation Yrotation Zrotation
														End Site
														{
															OFFSET 0.000000 0.000000 0.000000
														}
													}
												}
											}
										}
									}
								}
							}
						}
					}
					JOINT RightShoulder
					{
						OFFSET -2.196100 4.412496 0.070690
						CHANNELS 3 Xrotation Yrotation Zrotation
						JOINT RightShoulder_split
						{
							OFFSET -2.196100 4.412496 0.070690
							CHANNELS 3 Xrotation Yrotation Zrotation
							JOINT RightArm
							{
								OFFSET -8.771282 -2.981682 -0.094208
								CHANNELS 3 Xrotation Yrotation Zrotation
								JOINT RightForeArm
								{
									OFFSET -8.494598 0.000000 0.000000
									CHANNELS 3 Xrotation Yrotation Zrotation
									JOINT RightHand
									{
										OFFSET -18.483803 0.000000 0.000001
										CHANNELS 3 Xrotation Yrotation Zrotation
										JOINT RightHandThumb1
										{
											OFFSET -2.527351 -1.008072 2.575253
											CHANNELS 3 Xrotation Yrotation Zrotation
											JOINT RightHandThumb2
											{
												OFFSET -2.321518 -1.340328 1.340329
												CHANNELS 3 Xrotation Yrotation Zrotation
												JOINT RightHandThumb3
												{
													OFFSET -2.657753 -1.534454 1.534455
													CHANNELS 3 Xrotation Yrotation Zrotation
													JOINT RightHandThumb4
													{
														OFFSET -1.807510 -1.043568 1.043567
														CHANNELS 3 Xrotation Yrotation Zrotation
														End Site
														{
															OFFSET 0.000000 0.000000 0.000000
														}
													}
												}
											}
										}
										JOINT RightHandIndex1
										{
											OFFSET -8.811420 0.015533 2.887987
											CHANNELS 3 Xrotation Yrotation Zrotation
											JOINT RightHandIndex2
											{
												OFFSET -3.537502 0.000000 0.000000
												CHANNELS 3 Xrotation Yrotation Zrotation
												JOINT RightHandIndex3
												{
													OFFSET -3.356201 0.000000 0.000000
													CHANNELS 3 Xrotation Yrotation Zrotation
													JOINT RightHandIndex4
													{
														OFFSET -1.933098 0.000000 0.000000
														CHANNELS 3 Xrotation Yrotation Zrotation
														End Site
														{
															OFFSET 0.000000 0.000000 0.000000
														}
													}
												}
											}
										}
										JOINT RightHandMiddle1
										{
											OFFSET -8.178135 0.000000 0.000000
											CHANNELS 3 Xrotation Yrotation Zrotation
											JOINT RightHandMiddle2
											{
												OFFSET -3.901302 0.000000 0.000000
												CHANNELS 3 Xrotation Yrotation Zrotation
												JOINT RightHandMiddle3
												{
													OFFSET -3.909599 0.000000 0.000000
													CHANNELS 3 Xrotation Yrotation Zrotation
													JOINT RightHandMiddle4
													{
														OFFSET -2.376003 0.000000 0.000000
														CHANNELS 3 Xrotation Yrotation Zrotation
														End Site
														{
															OFFSET 0.000000 0.000000 0.000000
														}
													}
												}
											}
										}
										JOINT RightHandRing1
										{
											OFFSET -7.559013 0.014137 -2.865403
											CHANNELS 3 Xrotation Yrotation Zrotation
											JOINT RightHandRing2
											{
												OFFSET -3.449306 0.000000 0.000000
												CHANNELS 3 Xrotation Yrotation Zrotation
												JOINT RightHandRing3
												{
													OFFSET -3.362106 0.000000 0.000000
													CHANNELS 3 Xrotation Yrotation Zrotation
													JOINT RightHandRing4
													{
														OFFSET -2.076401 0.000000 0.000000
														CHANNELS 3 Xrotation Yrotation Zrotation
														End Site
														{
															OFFSET 0.000000 0.000000 0.000000
														}
													}
												}
											}
										}
									}
								}
							}
						}
					}
				}
			}
		}
	}
	JOINT LeftUpLeg
	{
		OFFSET 10.205400 -3.823500 0.155100
		CHANNELS 3 Xrotation Yrotation Zrotation
		JOINT LeftLeg
		{
			OFFSET 0.708757 -12.982077 0.567790
			CHANNELS 3 Xrotation Yrotation Zrotation
			JOINT LeftFoot
			{
				OFFSET -0.708756 -10.717838 -2.184338
				CHANNELS 3 Xrotation Yrotation Zrotation
				JOINT LeftToeBase
				{
					OFFSET 0.108149 -7.191104 7.560241
					CHANNELS 3 Xrotation Yrotation Zrotation
					JOINT LeftToe_End
					{
						OFFSET 0.070230 0.081724 4.490308
						CHANNELS 3 Xrotation Yrotation Zrotation
						End Site
						{
							OFFSET 0.000000 0.000000 0.000000
						}
					}
				}
			}
		}
	}
	JOINT RightUpLeg
	{
		OFFSET -10.205400 -3.823500 0.005500
		CHANNELS 3 Xrotation Yrotation Zrotation
		JOINT RightLeg
		{
			OFFSET -0.708756 -12.982134 0.610632
			CHANNELS 3 Xrotation Yrotation Zrotation
			JOINT RightFoot
			{
				OFFSET 0.708754 -10.717769 -1.945823
				CHANNELS 3 Xrotation Yrotation Zrotation
				JOINT RightToeBase
				{
					OFFSET -0.108140 -7.191069 7.372968
					CHANNELS 3 Xrotation Yrotation Zrotation
					JOINT RightToe_End
					{
						OFFSET -0.070227 0.081735 4.479403
						CHANNELS 3 Xrotation Yrotation Zrotation
						End Site
						{
							OFFSET 0.000000 0.000000 0.000000
						}
					}
				}
			}
		}
	}
}
MOTION
Frames: 6
Frame Time: 0.016667
0.235379 28.752125 -0.245385 -4.047746 -61.084035 -2.333906 10.529361 0.398009 -1.627295 7.138506 0.481493 -4.840608 0.000000 0.000000 0.000000 7.341885 0.512816 -4.809184 -23.259403 25.805454 11.809881 -6.291533 25.717213 -2.641170 0.000000 0.000000 0.000000 -6.367310 -10.788158 -3.787785 0.000000 0.000000 0.000000 -21.873394 6.546979 -38.737445 3.298301 -47.813612 1.501526 23.526231 -7.456319 15.579783 -1.744008 -11.605061 7.087491 1.175746 16.638472 -3.372729 -0.086283 -2.198416 0.945727 -0.000002 -0.000002 -0.000004 13.261895 -0.994754 14.608072 -0.163795 0.326162 -27.178243 -0.141875 0.308262 -28.328918 -0.000000 0.000002 0.000001 8.530531 -0.377321 3.011986 0.228019 0.647991 -25.974494 0.399845 0.174990 -40.429618 -0.000001 0.000002 -0.000001 6.138284 3.128103 -12.283906 0.030969 0.295610 -26.198143 0.394210 0.759306 -38.213061 -0.000003 -0.000002 -0.000000 -5.546724 11.668536 2.442858 0.000000 0.000000 0.000000 -42.804638 -24.538213 26.405993 34.764184 107.847253 -33.401336 -11.227970 18.802024 -0.896783 -0.426190 14.756542 -9.085183 -0.217036 -13.162702 4.783231 2.611181 -8.768499 -6.255833 0.000002 0.000000 0.000005 19.387709 11.163759 -18.356934 -0.122750 -0.303407 13.011837 -0.103179 -0.275698 18.232866 0.000001 0.000001 0.000000 4.365706 2.482352 -9.836898 0.357454 -0.462565 21.866695 0.450760 0.187224 34.021193 -0.000000 -0.000002 -0.000001 -6.967537 -10.645255 0.698127 0.113417 -0.065233 21.132231 0.449827 -0.432025 28.241092 -0.000005 -0.000001 0.000001 -34.682034 5.772784 38.645139 49.828593 -14.958594 -12.081788 -13.738649 -0.140904 -13.850530 -0.327591 1.238437 0.837250 0.000000 0.000000 0.000000 -29.929698 -3.009492 -32.233428 57.054657 8.854914 -7.083519 -25.928411 -1.141043 27.521781 -0.322804 -0.997448 -0.837187 0.000000 0.000002 0.000000 
0.219712 28.769279 -0.250459 -3.884877 -60.859731 -1.953413 10.589673 0.393758 -1.557062 7.257247 0.468895 -4.778348 0.000000 0.000000 0.000000 7.460062 0.466601 -4.741545 -22.867979 25.805334 11.676786 -5.777269 25.649952 -2.782643 -0.000000 -0.000000 -0.000000 -6.418706 -10.815729 -4.148081 0.000000 0.000000 0.000000 -21.457130 6.690807 -38.715093 4.406710 -47.475631 2.146152 23.256347 -7.467395 15.380459 -1.783028 -11.815749 7.005561 1.104964 16.445769 -3.450754 -0.140460 -2.396523 0.847605 -0.000001 -0.000005 -0.000001 13.259817 -0.994093 14.834539 -0.164117 0.325784 -26.951599 -0.142774 0.307252 -28.102243 -0.000001 -0.000000 0.000001 8.532570 -0.380235 3.238581 0.227722 0.647184 -25.747827 0.398059 0.174635 -40.202975 0.000000 0.000003 -0.000001 6.140720 3.125705 -12.057610 0.030054 0.294088 -25.971509 0.393273 0.759295 -37.986394 0.000001 -0.000001 0.000001 -5.573472 11.590795 2.601353 0.000000 0.000000 0.000000 -43.195154 -24.472067 26.216993 33.970240 108.583042 -32.512302 -11.201336 19.600893 -1.776039 -0.422800 14.740474 -9.092037 -0.211408 -13.177349 4.776928 2.614780 -8.783910 -6.262759 0.000001 -0.000006 0.000001 19.389065 11.163746 -18.339758 -0.122772 -0.303285 13.029357 -0.102337 -0.275602 18.250419 0.000000 0.000002 0.000002 4.365199 2.482202 -9.819370 0.357982 -0.462949 21.884169 0.451309 0.187029 34.038685 0.000001 -0.000000 -0.000001 -6.967629 -10.645393 0.715590 0.113412 -0.065609 21.149684 0.450319 -0.431715 28.258593 0.000001 0.000001 -0.000001 -34.442192 5.557348 38.003859 49.510221 -14.457695 -11.973827 -13.537294 -0.139570 -14.050144 -0.327591 1.238432 0.837251 0.000000 0.000005 0.000000 -29.952268 -3.105356 -32.622186 57.197613 9.017174 -7.079939 -26.127984 -1.273395 27.479869 -0.322802 -0.997448 -0.837186 0.000000 -0.000001 0.000000 
0.199065 28.783783 -0.255317 -3.681796 -60.598654 -1.567181 10.638556 0.384325 -1.510302 7.369340 0.453075 -4.726278 0.000000 0.000000 0.000000 7.573434 0.423505 -4.679432 -22.543787 25.796371 11.622067 -5.275322 25.598649 -2.912717 -0.000000 0.000001 0.000000 -6.440489 -10.884642 -4.337061 0.000000 0.000000 0.000000 -21.175203 6.913554 -38.724973 5.577252 -47.056663 2.897940 23.026038 -7.470486 15.124209 -1.779700 -11.806517 7.009847 1.107493 16.455734 -3.449338 -0.136563 -2.387711 0.851933 -0.000003 -0.000000 -0.000004 13.258855 -0.994113 14.824109 -0.164109 0.325376 -26.961999 -0.142734 0.306736 -28.112664 0.000002 -0.000001 -0.000001 8.531226 -0.380748 3.228210 0.228444 0.647209 -25.758213 0.397537 0.174852 -40.213412 -0.000001 -0.000002 0.000000 6.140622 3.125769 -12.067793 0.029527 0.294143 -25.981874 0.394094 0.759317 -37.996786 0.000000 -0.000001 -0.000001 -5.599828 11.504916 2.762627 0.000000 0.000000 0.000000 -43.512734 -24.472595 26.085462 33.347251 109.244518 -31.801101 -11.146616 20.342299 -2.590664 -0.415637 14.692883 -9.110312 -0.194274 -13.219766 4.757872 2.622739 -8.829368 -6.283182 0.000001 -0.000002 -0.000002 19.390113 11.163726 -18.289153 -0.122714 -0.303309 13.080218 -0.101459 -0.275439 18.301278 -0.000000 0.000002 -0.000001 4.364097 2.481783 -9.768461 0.358301 -0.463201 21.935057 0.451827 0.186762 34.089525 0.000001 0.000001 -0.000001 -6.968115 -10.645750 0.766208 0.113371 -0.065977 21.200557 0.450316 -0.431665 28.309514 0.000000 0.000000 0.000000 -34.266212 5.285762 37.400736 49.223251 -13.992127 -11.873968 -13.333106 -0.140396 -14.242999 -0.327594 1.238434 0.837249 -0.000000 -0.000003 0.000000 -29.972390 -3.282629 -32.920566 57.416872 10.236143 -7.039890 -26.314644 -2.359670 26.843496 -0.322803 -0.997448 -0.837186 0.000000 0.000001 0.000000 
0.174759 28.799217 -0.254397 -3.392382 -60.342365 -1.139937 10.687034 0.371385 -1.485063 7.474952 0.433634 -4.690572 0.000000 0.000000 0.000000 7.681312 0.379671 -4.629601 -22.293816 25.770343 11.684728 -4.788369 25.569008 -3.031156 -0.000000 -0.000000 0.000000 -6.435448 -10.967013 -4.380997 0.000000 0.000000 0.000000 -20.957495 7.136098 -38.771033 6.404548 -46.581306 3.444900 22.835409 -7.451246 14.856010 -1.773514 -11.778469 7.021338 1.117298 16.481812 -3.439123 -0.129130 -2.361195 0.865263 -0.000004 -0.000002 -0.000000 13.258214 -0.994222 14.793630 -0.164049 0.325110 -26.992460 -0.142642 0.306692 -28.143134 -0.000000 0.000001 -0.000001 8.530102 -0.380807 3.197763 0.228936 0.647380 -25.788696 0.397159 0.175194 -40.243874 0.000001 0.000001 0.000000 6.140287 3.126127 -12.098259 0.029272 0.294328 -26.012331 0.394732 0.759315 -38.027228 -0.000000 0.000000 -0.000000 -5.626215 11.415009 2.928155 0.000000 0.000000 0.000000 -43.757265 -24.499848 25.977062 33.032277 109.869576 -31.394770 -11.032531 21.015210 -3.371327 -0.404283 14.616195 -9.139749 -0.167420 -13.288498 4.728265 2.635438 -8.902229 -6.316164 -0.000002 -0.000003 -0.000006 19.390962 11.163734 -18.207643 -0.122634 -0.303401 13.161986 -0.100435 -0.275484 18.383034 -0.000000 0.000001 0.000001 4.362482 2.481090 -9.686591 0.358541 -0.463449 22.016859 0.452460 0.186374 34.171296 -0.000001 -0.000001 -0.000001 -6.968831 -10.646389 0.847665 0.113328 -0.066682 21.282318 0.450194 -0.431828 28.391300 -0.000001 -0.000000 -0.000001 -34.169152 5.017835 36.860578 48.965940 -13.577849 -11.784639 -13.147680 -0.144310 -14.411260 -0.327595 1.238435 0.837248 0.000000 0.000001 0.000000 -29.990418 -3.455957 -33.255440 57.484928 10.299082 -7.036572 -26.519215 -2.427268 26.842871 -0.322803 -0.997448 -0.837186 0.000000 0.000001 0.000000 
0.150948 28.812054 -0.251171 -3.093860 -60.162547 -0.738690 10.734904 0.355238 -1.485308 7.574219 0.410782 -4.672915 0.000000 0.000000 0.000000 7.783353 0.335844 -4.593514 -22.082907 25.743871 11.851057 -4.315873 25.561297 -3.138424 0.000000 -0.000000 -0.000000 -6.409818 -11.054808 -4.315950 0.000000 0.000000 0.000000 -20.815363 7.378801 -38.792541 6.651010 -46.078369 3.603154 22.701223 -7.384959 14.639406 -1.764453 -11.732695 7.039576 1.133341 16.523177 -3.421337 -0.117981 -2.317968 0.886960 -0.000004 -0.000000 -0.000002 13.257855 -0.994372 14.744261 -0.163998 0.324736 -27.041866 -0.142413 0.306987 -28.192495 -0.000001 -0.000002 0.000002 8.529106 -0.380419 3.148378 0.229290 0.647505 -25.838081 0.396845 0.175547 -40.293267 -0.000001 -0.000000 0.000001 6.139761 3.126635 -12.147721 0.029252 0.294709 -26.061768 0.395276 0.759285 -38.076618 -0.000002 -0.000000 -0.000001 -5.654096 11.324958 3.104010 0.000000 0.000000 0.000000 -43.920650 -24.514017 25.947621 32.981894 110.450142 -31.250998 -10.860974 21.577701 -4.048029 -0.388302 14.513302 -9.179716 -0.130947 -13.381355 4.689026 2.652710 -9.000489 -6.360350 0.000004 0.000000 0.000006 19.391611 11.163770 -18.097747 -0.122595 -0.303546 13.272222 -0.100055 -0.275587 18.493261 0.000001 0.000000 -0.000001 4.360320 2.480188 -9.576303 0.358764 -0.463775 22.127019 0.452549 0.185982 34.281498 -0.000001 0.000001 0.000001 -6.969800 -10.647252 0.957389 0.113234 -0.067375 21.392533 0.449777 -0.432184 28.501454 -0.000000 0.000000 0.000001 -34.100522 4.819553 36.438895 48.753894 -13.237860 -11.712463 -13.018762 -0.143267 -14.554086 -0.327591 1.238432 0.837250 -0.000000 0.000003 0.000000 -30.049520 -3.573958 -33.514014 57.539324 10.353180 -7.034451 -26.676006 -2.478287 26.840615 -0.322803 -0.997449 -0.837187 0.000000 -0.000001 -0.000000 
0.126906 28.820801 -0.247006 -2.796430 -59.990924 -0.343308 10.781946 0.336567 -1.506383 7.667308 0.383974 -4.681440 0.000000 0.000000 0.000000 7.879234 0.293437 -4.584787 -21.928278 25.710787 12.054983 -3.861872 25.570761 -3.237900 -0.000000 -0.000000 0.000000 -6.382518 -11.144564 -4.240882 0.000000 0.000000 0.000000 -20.767919 7.642738 -38.740823 6.454481 -45.557106 3.456523 22.648516 -7.261300 14.499819 -1.752526 -11.670297 7.064064 1.154632 16.579588 -3.396985 -0.102696 -2.259289 0.916461 -0.000002 -0.000003 -0.000002 13.257774 -0.994577 14.677125 -0.163892 0.324416 -27.109028 -0.142136 0.307353 -28.259679 0.000003 0.000001 -0.000003 8.528216 -0.379664 3.081217 0.229500 0.647758 -25.905226 0.396703 0.175959 -40.360452 0.000002 -0.000001 0.000001 6.139014 3.127348 -12.214914 0.029458 0.295157 -26.128911 0.395770 0.759313 -38.143823 0.000001 -0.000000 -0.000000 -5.676835 11.237932 3.254839 0.000000 0.000000 0.000000 -44.010409 -24.553458 26.010991 33.121930 110.940638 -31.304724 -10.627557 21.982100 -4.614357 -0.368924 14.385878 -9.228848 -0.086112 -13.496031 4.640436 2.674590 -9.121961 -6.414533 0.000001 -0.000002 -0.000000 19.392123 11.163892 -17.961854 -0.122416 -0.303830 13.408357 -0.099547 -0.275713 18.629377 0.000000 -0.000001 0.000000 4.357738 2.479027 -9.440054 0.358915 -0.463982 22.263207 0.452337 0.185542 34.417654 -0.000002 0.000000 -0.000001 -6.971000 -10.648279 1.093015 0.113169 -0.068303 21.528664 0.449433 -0.432714 28.637615 0.000005 0.000000 -0.000001 -34.087534 4.680817 36.074655 48.560142 -12.984171 -11.653456 -12.892995 -0.149443 -14.655463 -0.327596 1.238435 0.837249 0.000000 -0.000002 0.000000 -30.107054 -3.659242 -33.756967 57.615057 10.387417 -7.033409 -26.843714 -2.536903 26.852769 -0.322802 -0.997449 -0.837189 0.000000 0.000001 0.000000 
